<?xml version="1.0" encoding="utf-8"?>
<!-- Generator: Adobe Illustrator 16.0.0, SVG Export Plug-In . SVG Version: 6.00 Build 0)  -->
<!DOCTYPE svg PUBLIC "-//W3C//DTD SVG 1.1//EN" "http://www.w3.org/Graphics/SVG/1.1/DTD/svg11.dtd">
<svg version="1.1" id="Capa_1" xmlns="http://www.w3.org/2000/svg" xmlns:xlink="http://www.w3.org/1999/xlink" x="0px" y="0px"
	 width="56.693px" height="56.693px" viewBox="0 0 56.693 56.693" enable-background="new 0 0 56.693 56.693" xml:space="preserve">
<path fill="#A88888" d="M28.346,56.737c-15.615,0-28.391-12.775-28.391-28.39c0-15.615,12.775-28.392,28.391-28.392
	c15.614,0,28.391,12.776,28.391,28.392C56.737,43.962,43.96,56.737,28.346,56.737z M11.489,17.167
	c-2.129,3.372-3.37,7.099-3.37,11.18c0,11.179,9.049,20.228,20.229,20.228c3.904,0,7.808-1.24,11.179-3.369L11.489,17.167z
	 M45.202,39.526c2.131-3.371,3.371-7.098,3.371-11.179c0-11.18-9.049-20.229-20.228-20.229c-3.904,0-7.808,1.242-11.179,3.372
	L45.202,39.526z"/>
</svg>
