<?xml version="1.0" encoding="utf-8"?>
<!-- Generator: Adobe Illustrator 16.0.0, SVG Export Plug-In . SVG Version: 6.00 Build 0)  -->
<!DOCTYPE svg PUBLIC "-//W3C//DTD SVG 1.1//EN" "http://www.w3.org/Graphics/SVG/1.1/DTD/svg11.dtd">
<svg version="1.1" id="Capa_1" xmlns="http://www.w3.org/2000/svg" xmlns:xlink="http://www.w3.org/1999/xlink" x="0px" y="0px"
	 width="56.693px" height="56.693px" viewBox="0 0 56.693 56.693" enable-background="new 0 0 56.693 56.693" xml:space="preserve">
<path fill-rule="evenodd" clip-rule="evenodd" fill="#333333" d="M37.978,43.127C26.394,51.3,12.494,47.803,5.352,38.794
	c-7.431-9.375-6.83-23.04,1.488-31.544c8.497-8.689,21.891-9.678,31.418-2.389c9.539,7.299,12.911,21.596,4.735,33.244
	c0.282,0.307,0.568,0.639,0.879,0.947c3.747,3.754,7.504,7.5,11.249,11.255c1.752,1.757,1.874,3.873,0.334,5.388
	c-1.492,1.466-3.562,1.318-5.29-0.403C46.119,51.262,42.084,47.225,37.978,43.127z M23.856,40.711
	c9.164-0.001,16.762-7.597,16.792-16.783c0.029-9.178-7.571-16.863-16.692-16.875c-9.202-0.012-16.72,7.53-16.728,16.78
	C7.221,33.127,14.695,40.713,23.856,40.711z"/>
</svg>
